<?xml version="1.0" standalone="no"?>
<!DOCTYPE svg PUBLIC "-//W3C//DTD SVG 20010904//EN"
 "http://www.w3.org/TR/2001/REC-SVG-20010904/DTD/svg10.dtd">
<svg version="1.0" xmlns="http://www.w3.org/2000/svg"
 width="224.000000pt" height="232.000000pt" viewBox="0 0 224.000000 232.000000"
 preserveAspectRatio="xMidYMid meet">

<g transform="translate(0.000000,232.000000) scale(0.100000,-0.100000)"
fill="#000000" stroke="none">
<path d="M605 2006 c-41 -18 -92 -77 -104 -123 -7 -25 -11 -284 -11 -750 l0
-713 -84 0 c-113 0 -136 -24 -122 -127 8 -58 31 -97 79 -137 l39 -31 550 -3
550 -2 44 25 c26 15 54 43 69 69 l25 43 0 726 0 727 154 0 c85 0 161 3 170 6
13 5 16 22 16 82 0 99 -25 153 -88 193 l-46 29 -605 0 c-478 -1 -612 -4 -636
-14z m1035 -41 c0 -3 -10 -20 -22 -36 l-23 -31 -5 -817 c-5 -766 -6 -819 -23
-844 -40 -62 -116 -83 -183 -51 -50 24 -74 69 -74 142 0 101 38 92 -386 92
l-374 0 0 725 c0 801 -3 765 63 805 31 19 54 20 530 20 273 0 497 -2 497 -5z
m217 -15 c44 -26 60 -55 68 -122 l6 -58 -146 0 -147 0 5 48 c13 123 120 190
214 132z m-609 -1612 c3 -65 10 -94 32 -131 l22 -37 -439 2 c-438 3 -439 3
-467 26 -40 31 -56 66 -56 123 l0 49 453 0 454 0 1 -32z"/>
<path d="M585 190 c3 -5 8 -10 11 -10 2 0 4 5 4 10 0 6 -5 10 -11 10 -5 0 -7
-4 -4 -10z"/>
</g>
</svg>
