<?xml version="1.0" standalone="no"?>
<!DOCTYPE svg PUBLIC "-//W3C//DTD SVG 20010904//EN"
 "http://www.w3.org/TR/2001/REC-SVG-20010904/DTD/svg10.dtd">
<svg version="1.0" xmlns="http://www.w3.org/2000/svg"
 width="173.000000pt" height="220.000000pt" viewBox="0 0 173.000000 220.000000"
 preserveAspectRatio="xMidYMid meet">

<g transform="translate(0.000000,220.000000) scale(0.100000,-0.100000)"
fill="#000000" stroke="none">
<path d="M275 2098 c-32 -17 -76 -61 -91 -90 -21 -41 -21 -1388 1 -1468 51
-191 204 -344 395 -395 39 -11 112 -15 256 -15 177 0 210 3 270 21 140 43 262
142 327 267 68 130 67 111 67 868 0 458 -4 692 -11 711 -13 34 -55 80 -91 99
-15 8 -52 14 -83 14 -62 0 -97 -14 -137 -57 -43 -46 -48 -72 -48 -274 0 -104
-3 -189 -6 -189 -3 0 -17 9 -31 19 -57 46 -169 34 -226 -23 l-34 -33 -32 32
c-57 59 -154 69 -228 23 l-33 -20 0 189 c0 161 -3 194 -19 228 -21 46 -54 79
-94 94 -37 14 -126 14 -152 -1z m156 -65 c58 -49 59 -55 59 -473 l0 -380 -72
0 c-76 -1 -137 -17 -167 -44 -10 -9 -21 -16 -24 -16 -4 0 -7 189 -7 420 0 465
0 462 63 500 47 29 108 26 148 -7z m955 8 c67 -41 65 -15 62 -778 -4 -757 0
-712 -66 -832 -36 -65 -139 -163 -204 -195 -97 -47 -148 -56 -343 -56 -206 0
-274 13 -371 71 -67 41 -149 126 -186 195 -49 90 -58 149 -58 364 0 183 2 197
23 234 43 77 61 81 322 81 222 0 231 -1 261 -22 83 -59 75 -175 -16 -229 -8
-5 -85 -11 -170 -14 -151 -5 -155 -6 -158 -27 -3 -23 -2 -23 110 -23 190 -1
238 -38 238 -186 0 -60 4 -85 15 -94 28 -23 45 5 45 75 0 75 -21 149 -52 182
-23 25 -23 26 -3 37 10 6 31 22 45 36 24 22 35 25 107 25 72 0 83 3 117 29 76
58 76 53 76 574 0 412 2 468 17 499 21 45 67 73 118 73 22 0 54 -9 71 -19z
m-678 -465 c15 -8 35 -17 45 -20 9 -3 20 -14 24 -23 4 -10 11 -21 17 -25 11
-7 22 -297 13 -321 -3 -9 -43 -11 -136 -9 l-131 3 0 150 c0 141 9 197 29 184
5 -2 8 3 7 12 0 11 15 26 44 40 53 27 54 27 88 9z m334 -5 c80 -36 83 -45 86
-301 3 -195 1 -229 -14 -262 -21 -47 -69 -78 -120 -78 -42 0 -73 13 -56 24 6
4 7 20 1 47 -6 23 -8 47 -6 52 3 11 -8 27 -50 71 -22 22 -23 31 -23 190 0 160
8 214 31 201 5 -4 9 3 9 15 0 15 12 26 43 40 53 24 48 23 99 1z"/>
</g>
</svg>
