<?xml version="1.0" standalone="no"?>
<!DOCTYPE svg PUBLIC "-//W3C//DTD SVG 20010904//EN"
 "http://www.w3.org/TR/2001/REC-SVG-20010904/DTD/svg10.dtd">
<svg version="1.0" xmlns="http://www.w3.org/2000/svg"
 width="213.000000pt" height="229.000000pt" viewBox="0 0 213.000000 229.000000"
 preserveAspectRatio="xMidYMid meet">

<g transform="translate(0.000000,229.000000) scale(0.100000,-0.100000)"
fill="#000000" stroke="none">
<path d="M422 2083 c-81 -162 -75 -371 15 -525 16 -26 107 -138 203 -250 96
-111 183 -212 192 -223 16 -21 14 -25 -65 -124 l-82 -102 -90 -3 c-106 -2
-167 -28 -229 -96 -61 -68 -81 -121 -81 -220 0 -73 4 -92 27 -136 107 -203
378 -238 527 -68 52 59 74 118 76 205 l2 76 78 92 c89 104 76 104 160 2 l50
-60 0 -98 c1 -86 4 -104 27 -148 65 -126 201 -196 336 -175 188 31 309 216
258 395 -44 148 -158 235 -311 235 l-64 0 -75 96 c-42 52 -76 100 -76 105 0 6
79 103 176 217 97 114 191 230 210 257 91 135 113 340 54 498 -23 62 -44 89
-63 81 -7 -3 -145 -175 -307 -384 -162 -208 -297 -379 -300 -379 -3 0 -135
167 -295 371 -159 204 -296 377 -303 385 -21 20 -30 16 -50 -24z m326 -413
c155 -197 282 -362 282 -365 0 -3 -4 -11 -10 -18 -23 -29 -77 -99 -104 -136
l-30 -41 -26 28 c-40 42 -333 385 -348 407 -7 11 -21 34 -32 50 -11 17 -23 41
-26 55 -3 14 -10 34 -17 45 -14 25 -20 209 -8 250 5 17 12 42 15 58 4 15 10
27 15 27 4 0 135 -162 289 -360z m956 302 c32 -117 15 -275 -42 -375 -31 -54
-752 -915 -767 -916 -6 -1 -19 15 -30 35 -19 35 -58 74 -104 105 l-24 15 467
597 c258 328 471 597 476 597 4 0 15 -26 24 -58z m-376 -1041 c61 -79 72 -101
52 -101 -19 0 -97 -64 -115 -92 -9 -16 -20 -28 -26 -28 -16 0 -119 117 -119
136 0 6 15 27 33 47 17 20 46 54 62 76 17 22 35 40 41 41 6 0 38 -36 72 -79z
m-612 -149 c52 -27 118 -99 135 -148 31 -93 6 -207 -63 -276 -57 -56 -101 -73
-194 -73 -72 0 -86 3 -130 30 -88 55 -142 162 -129 260 12 100 81 183 182 221
51 19 148 12 199 -14z m920 0 c49 -25 110 -91 131 -141 9 -20 16 -63 16 -96 1
-140 -102 -252 -243 -263 -110 -8 -199 40 -254 138 -26 47 -30 64 -30 125 0
122 71 216 194 256 41 14 142 3 186 -19z"/>
<path d="M1038 1105 c-9 -21 -8 -28 7 -45 10 -11 26 -20 35 -20 9 0 25 9 35
20 27 30 7 70 -35 70 -23 0 -33 -6 -42 -25z"/>
<path d="M562 690 c-97 -23 -144 -148 -87 -232 30 -45 97 -74 149 -64 66 12
126 82 126 146 0 63 -46 130 -100 145 -45 12 -55 13 -88 5z m101 -74 c36 -33
43 -70 23 -113 -31 -65 -114 -74 -163 -18 -77 88 55 210 140 131z"/>
<path d="M1482 690 c-91 -21 -139 -134 -94 -220 20 -38 89 -80 131 -80 72 0
151 78 151 149 0 64 -46 131 -100 146 -45 12 -55 13 -88 5z m101 -74 c33 -31
43 -68 27 -107 -28 -67 -109 -81 -162 -29 -27 28 -30 36 -25 73 11 81 102 117
160 63z"/>
</g>
</svg>
